<svg xmlns="http://www.w3.org/2000/svg" width="292.93" height="81.818" viewBox="0 0 292.93 81.818"><path fill="#66665D" d="M93.436 34.247c0 4.48 2.629 8.72 7.5 8.72 5.019 0 7.649-4.046 7.649-8.671 0-4.576-2.874-8.279-7.696-8.279-4.532 0-7.453 3.945-7.453 8.23m.194-7.938h.095c1.9-2.532 4.727-3.896 7.893-3.896 6.721 0 10.96 5.796 10.96 12.125 0 6.528-4.138 12.032-11.009 12.032-3.117 0-5.991-1.364-7.844-3.849h-.095v16.072h-3.896V23.047h3.896v3.262zM122.087 25.529h.095c1.365-1.802 2.534-3.116 5.066-3.116 1.316 0 2.388.439 3.508 1.071l-1.85 3.555c-.779-.536-1.316-1.022-2.337-1.022-4.289 0-4.482 5.504-4.482 8.473v11.448h-3.899V23.047h3.899v2.482zM136.096 34.247c0 4.48 2.632 8.72 7.502 8.72 5.018 0 7.647-4.046 7.647-8.671 0-4.576-2.874-8.279-7.695-8.279-4.529 0-7.454 3.945-7.454 8.23m18.85 11.691h-3.896V42.77h-.098c-1.997 2.535-4.675 3.8-7.891 3.8-6.721 0-10.959-5.7-10.959-12.032 0-6.522 4.143-12.125 11.008-12.125 3.12 0 5.94 1.461 7.842 3.896h.098v-3.262h3.896v22.891zM165.933 31.521l8.327-8.474h5.212l-9.789 9.741 11.642 13.15h-5.166l-9.207-10.422-1.019 1.018v9.404h-3.895V5.754h3.895zM189.696 45.938h-3.895V26.649h-2.386v-3.602h2.386v-8.232h3.895v8.232h4.093v3.602h-4.093zM201.934 45.938h-3.901V23.047h3.901v22.891zm.824-31.514a2.774 2.774 0 0 1-2.775 2.776 2.772 2.772 0 0 1-2.776-2.776c0-1.509 1.265-2.775 2.776-2.775 1.508 0 2.775 1.267 2.775 2.775M226.894 29.865h-.095c-1.805-2.291-4.046-3.848-7.112-3.848-4.724 0-8.086 3.895-8.086 8.473 0 4.531 3.118 8.478 7.894 8.478 3.259 0 5.549-1.463 7.448-3.946h.098v5.21c-2.241 1.509-4.531 2.339-7.255 2.339-6.917 0-12.179-5.165-12.179-12.08 0-6.818 5.505-12.077 12.228-12.077 2.481 0 5.014.829 7.06 2.29v5.161zM236.857 35.806c0 3.848.439 7.162 5.163 7.162 4.727 0 5.163-3.313 5.163-7.162V23.047h3.897v13.198c0 6.085-2.288 10.325-9.061 10.325-6.77 0-9.058-4.239-9.058-10.325V23.047h3.895v12.759zM262.053 25.529h.098c1.215-1.899 3.164-3.116 5.5-3.116 2.681 0 5.115 1.413 6.333 3.8 1.365-2.534 4.092-3.8 6.868-3.8 5.844 0 7.307 4.774 7.307 9.593v13.932h-3.896v-13.3c0-2.968-.195-6.621-4.189-6.621-4.479 0-4.968 4.335-4.968 7.793v12.128h-3.897V32.932c0-2.824-.339-6.915-4.092-6.915-4.577 0-5.063 4.627-5.063 8.086v11.835h-3.899V23.047h3.899v2.482z"/><path fill="#FF8300" d="M38.714 12.842c-16.435 0-31.926 9.928-33.652 25.074-1.116 9.762.073 20.061 6.794 38.705L22.108 57.94c-6.992-11.746-7.488-20.242-5.935-26.725 2.502-10.458 11.572-16.252 23.967-16.252s24.375 6.796 24.26 15.461c-.173 12.859-17.441 19.193-34.468 13.887l-5.466 9.969c19.282 5.334 43.935-2.996 44.006-19.204.056-12.282-13.325-22.234-29.758-22.234"/></svg>